<svg id="visual" viewBox="0 0 500 150" width="500" height="150" xmlns="http://www.w3.org/2000/svg" xmlns:xlink="http://www.w3.org/1999/xlink" version="1.1"><rect x="0" y="0" width="500" height="150" fill="#DFDFDF"></rect><path d="M0 141L3.8 136.2C7.7 131.3 15.3 121.7 22.8 120.2C30.3 118.7 37.7 125.3 45.2 125.7C52.7 126 60.3 120 68 120.8C75.7 121.7 83.3 129.3 91 133.5C98.7 137.7 106.3 138.3 113.8 134C121.3 129.7 128.7 120.3 136.2 116C143.7 111.7 151.3 112.3 159 112.7C166.7 113 174.3 113 182 117.5C189.7 122 197.3 131 204.8 132.2C212.3 133.3 219.7 126.7 227.2 122.2C234.7 117.7 242.3 115.3 250 114.2C257.7 113 265.3 113 272.8 112.3C280.3 111.7 287.7 110.3 295.2 112.3C302.7 114.3 310.3 119.7 318 120.7C325.7 121.7 333.3 118.3 341 119.3C348.7 120.3 356.3 125.7 363.8 124.7C371.3 123.7 378.7 116.3 386.2 117.5C393.7 118.7 401.3 128.3 409 131.2C416.7 134 424.3 130 432 125.2C439.7 120.3 447.3 114.7 454.8 112.3C462.3 110 469.7 111 477.2 112.7C484.7 114.3 492.3 116.7 496.2 117.8L500 119L500 151L496.2 151C492.3 151 484.7 151 477.2 151C469.7 151 462.3 151 454.8 151C447.3 151 439.7 151 432 151C424.3 151 416.7 151 409 151C401.3 151 393.7 151 386.2 151C378.7 151 371.3 151 363.8 151C356.3 151 348.7 151 341 151C333.3 151 325.7 151 318 151C310.3 151 302.7 151 295.2 151C287.7 151 280.3 151 272.8 151C265.3 151 257.7 151 250 151C242.3 151 234.7 151 227.2 151C219.7 151 212.3 151 204.8 151C197.3 151 189.7 151 182 151C174.3 151 166.7 151 159 151C151.3 151 143.7 151 136.2 151C128.7 151 121.3 151 113.8 151C106.3 151 98.7 151 91 151C83.3 151 75.7 151 68 151C60.3 151 52.7 151 45.2 151C37.7 151 30.3 151 22.8 151C15.3 151 7.7 151 3.8 151L0 151Z" fill="#888888" stroke-linecap="round" stroke-linejoin="miter"></path></svg>