<svg id="visual" viewBox="0 0 300 250" width="300" height="250" xmlns="http://www.w3.org/2000/svg" xmlns:xlink="http://www.w3.org/1999/xlink" version="1.1"><rect x="0" y="0" width="300" height="250" fill="#DFDFDF"></rect><defs><linearGradient id="grad1_0" x1="16.7%" y1="0%" x2="100%" y2="100%"><stop offset="26%" stop-color="#dfdfdf" stop-opacity="1"></stop><stop offset="74%" stop-color="#dfdfdf" stop-opacity="1"></stop></linearGradient></defs><defs><linearGradient id="grad2_0" x1="0%" y1="0%" x2="83.3%" y2="100%"><stop offset="26%" stop-color="#dfdfdf" stop-opacity="1"></stop><stop offset="74%" stop-color="#dfdfdf" stop-opacity="1"></stop></linearGradient></defs><g transform="translate(300, 0)"><path d="M0 87.9C-4.9 88.3 -9.7 88.7 -11.7 81.2C-13.6 73.6 -12.7 58.2 -17.5 59.5C-22.3 60.8 -32.9 78.8 -36.5 79.9C-40.1 81.1 -36.8 65.4 -38.4 59.7C-39.9 54.1 -46.3 58.4 -51.1 58.9C-55.8 59.5 -59 56.1 -59.7 51.7C-60.4 47.3 -58.7 41.9 -59.7 38.4C-60.7 34.9 -64.5 33.2 -66.4 30.3C-68.3 27.4 -68.5 23.3 -66.2 19.4C-63.9 15.6 -59.2 12.1 -62.4 9C-65.6 5.8 -76.7 2.9 -87.9 0L0 0Z" fill="#888888"></path></g><g transform="translate(0, 250)"><path d="M0 -87.9C3.9 -85.4 7.7 -82.9 11.8 -82.2C15.9 -81.4 20.1 -82.4 23.7 -80.6C27.2 -78.8 30 -74.1 31.6 -69.1C33.2 -64.2 33.6 -59.1 37.3 -58C41 -57 48.1 -60.2 50.4 -58.2C52.8 -56.2 50.5 -49.1 54.4 -47.1C58.4 -45.2 68.6 -48.3 71.5 -46C74.5 -43.6 70.1 -35.9 66.4 -30.3C62.7 -24.7 59.5 -21.2 64.3 -18.9C69 -16.6 81.7 -15.4 87 -12.5C92.2 -9.6 90 -4.8 87.9 0L0 0Z" fill="#888888"></path></g></svg>